<?xml version="1.0" encoding="UTF-8"?><svg id="Layer_2" xmlns="http://www.w3.org/2000/svg" viewBox="0 0 86.7 9.01"><defs><style>.cls-1{fill:#50b450;}</style></defs><g id="Layer_1-2"><g id="SvgjsG2419"><path class="cls-1" d="m1.71,4.52l4.42,1.76v1.38L0,5.23v-1.42L6.13,1.38v1.4l-4.42,1.74Z"/><path class="cls-1" d="m11.28.02l-3.35,8.99h-1.36L9.92,0h1.36v.02Z"/><path class="cls-1" d="m16.13,4.52l-4.42-1.76v-1.4l6.13,2.46v1.42l-6.13,2.42v-1.38l4.42-1.76Z"/></g><g id="SvgjsG2420"><path class="cls-1" d="m22.5.04h1.54v7.52h4.7v1.43h-6.24V.04h0Zm12.1,7.52c-.19-.04-.36-.09-.53-.17-.35-.16-.66-.39-.92-.68-.25-.26-.45-.59-.6-.98-.14-.39-.21-.78-.21-1.18v-.09c0-.41.07-.81.21-1.2.16-.4.36-.72.6-.96.25-.29.55-.51.9-.66.21-.1.39-.16.55-.19V.04c-.44.06-.83.17-1.17.32-.55.24-1.02.56-1.41.96s-.7.88-.92,1.43-.34,1.13-.34,1.73v.09c0,.61.11,1.19.34,1.73.2.54.5,1.01.9,1.41.4.41.87.73,1.41.96.34.15.73.26,1.18.32v-1.43h0Zm5.11-3.04v-.06c0-.61-.11-1.19-.34-1.73-.23-.55-.53-1.03-.92-1.43-.38-.4-.84-.71-1.39-.94-.31-.15-.7-.26-1.15-.32v1.43l.23.08c.11.04.2.07.26.09.35.16.66.39.92.68.25.26.45.59.6.98.14.39.21.78.21,1.18v.09c0,.41-.07.81-.21,1.2-.16.4-.36.72-.6.96-.25.29-.55.51-.9.66-.16.08-.33.13-.51.17v1.43c.38-.05.75-.16,1.13-.32.51-.21.98-.53,1.41-.96.41-.44.72-.91.92-1.43.23-.55.34-1.13.34-1.73v-.04h0ZM41.86.04h-1.45l1.82,8.95h1.58l-1.17-5.51-.79-3.44ZM47.95.04l-1.05,3.74.71,2.73L49.34.04s-1.39,0-1.39,0Zm-2.27,2.74l-.11-.47-.6-2.27-.81,2.67-.04.08-.3,1.05.56,2.52.36-1.24.92,3.87h1.6l-1.39-5.51-.19-.7Zm5.75-.08c.23-.55.55-1.02.98-1.41.39-.39.89-.7,1.5-.94s1.26-.36,1.94-.36h2.09v1.43h-2.07c-.49,0-.92.08-1.3.24-.4.16-.73.38-.98.64-.26.25-.48.58-.64.98-.15.36-.23.77-.23,1.22s.08.86.23,1.22c.15.38.36.7.64.98.25.25.58.46.98.62.4.15.83.23,1.3.23h2.07v1.43h-2.09c-.7,0-1.34-.11-1.92-.34-.6-.25-1.11-.57-1.52-.96-.43-.4-.75-.88-.98-1.43-.24-.58-.36-1.17-.36-1.77,0-.64.12-1.23.36-1.79h0Zm12.05,4.85c-.19-.04-.36-.09-.53-.17-.35-.16-.66-.39-.92-.68-.25-.26-.45-.59-.6-.98-.14-.39-.21-.78-.21-1.18v-.09c0-.41.07-.81.21-1.2.16-.4.36-.72.6-.96.25-.29.55-.51.9-.66.21-.1.39-.16.54-.19V.04c-.44.06-.83.17-1.17.32-.55.24-1.02.56-1.41.96s-.7.88-.92,1.43-.34,1.13-.34,1.73v.09c0,.61.11,1.19.34,1.73.2.54.5,1.01.9,1.41.4.41.87.73,1.41.96.34.15.73.26,1.18.32v-1.43h0Zm5.11-3.04v-.06c0-.61-.11-1.19-.34-1.73-.23-.55-.53-1.03-.92-1.43-.38-.4-.84-.71-1.39-.94-.31-.15-.7-.26-1.15-.32v1.43l.23.08c.11.04.2.07.26.09.35.16.66.39.92.68.25.26.45.59.6.98.14.39.21.78.21,1.18v.09c0,.41-.07.81-.21,1.2-.16.4-.36.72-.6.96-.25.29-.55.51-.9.66-.16.08-.33.13-.51.17v1.43c.38-.05.75-.16,1.13-.32.51-.21.98-.53,1.41-.96.41-.44.72-.91.92-1.43.23-.55.34-1.13.34-1.73v-.04h0Zm8.23,1.77c-.24.58-.56,1.05-.98,1.43-.43.4-.93.71-1.5.94s-1.22.34-1.94.34h-2.09v-1.43h2.07c.48,0,.91-.08,1.3-.23.38-.15.7-.36.98-.64s.49-.6.64-.98.23-.79.23-1.24-.08-.85-.23-1.22c-.15-.39-.36-.71-.64-.96-.25-.26-.58-.48-.98-.64-.4-.15-.83-.23-1.3-.23h-2.07V0h2.09c.66,0,1.3.12,1.92.36.58.21,1.08.53,1.52.96.43.39.75.86.98,1.43.24.58.36,1.17.36,1.77,0,.65-.12,1.24-.36,1.77h0ZM80.01.04h6.69v1.43h-6.69V.04Zm0,7.52h6.67v1.43h-6.67v-1.43Zm0-3.8h6.03v1.41h-6.03s0-1.41,0-1.41Z"/></g></g></svg>